<svg xmlns="http://www.w3.org/2000/svg" x="0px" y="0px" viewBox="0 0 864 864" enable-background="new 0 0 864 864"><style>.fs0,.ls0{fill:#fff}</style><g><path class="ls0" d="M526.4 302.6L570.6 302.6 546.2 265.8 502 265.8z"/><path class="ls0" d="M432 93.5L415.1 119 415.1 119 387.8 160.2 343.6 226.9 317.8 265.8 293.4 302.6 266 344 236.7 388.2 212.2 425 256.5 425 607.5 425 651.8 425 627.3 388.2 598 344 553.8 344 583.1 388.2 432 388.2 280.9 388.2 310.2 344 337.6 302.6 432 302.6 432 265.8 362 265.8 387.8 226.9 409.9 193.6 432 160.2 454.1 193.6 476.2 226.9 520.4 226.9 476.2 160.2 445.1 113.3 445.1 113.3z"/><path class="ls0" d="M432 514.9L456.4 478 432 441.2 407.6 478z"/><path class="ls0" d="M526.4 563.6L337.6 563.6 256.5 441.2 212.2 441.2 293.4 563.6 317.8 600.4 387.8 706 409.9 672.7 362 600.4 502 600.4 454.1 672.7 476.2 706 546.2 600.4 570.6 563.6 651.8 441.2 607.5 441.2z"/><path class="ls0" d="M409.9 739.4L432 772.7 454.1 739.4 454.1 739.4 432 706z"/></g><g><path class="fs0" d="M147.5,433.1L432,862.3l284.5-429.2L432,3.9L147.5,433.1z M432,808.9L182.9,433.1L432,57.3l249.1,375.8	L432,808.9z"/></g></svg>